<svg xmlns="http://www.w3.org/2000/svg" viewBox="0 0 400 300" fill="none">
  <rect width="400" height="300" fill="#f0f4f8"/>
  <g transform="translate(80, 50)">
    <rect width="240" height="160" rx="12" fill="#e8f5e9" stroke="#4caf50" stroke-width="2"/>
    <g transform="translate(30, 25)">
      <rect width="80" height="60" rx="6" fill="#a5d6a7"/>
      <rect x="10" y="10" width="60" height="8" rx="2" fill="#fff"/>
      <rect x="10" y="25" width="50" height="8" rx="2" fill="#fff"/>
      <rect x="10" y="40" width="40" height="8" rx="2" fill="#fff"/>
    </g>
    <g transform="translate(130, 25)">
      <rect width="80" height="60" rx="6" fill="#81c784"/>
      <rect x="10" y="10" width="60" height="8" rx="2" fill="#fff"/>
      <rect x="10" y="25" width="50" height="8" rx="2" fill="#fff"/>
      <rect x="10" y="40" width="55" height="8" rx="2" fill="#fff"/>
    </g>
    <rect x="30" y="100" width="180" height="12" rx="4" fill="#c8e6c9"/>
    <rect x="30" y="120" width="150" height="12" rx="4" fill="#c8e6c9"/>
    <rect x="30" y="140" width="120" height="12" rx="4" fill="#c8e6c9"/>
  </g>
  <text x="200" y="250" font-family="Arial, sans-serif" font-size="14" fill="#888" text-anchor="middle">项目展示图片</text>
</svg>
